<?xml version="1.0" encoding="utf-8"?>
<svg xmlns="http://www.w3.org/2000/svg" xmlns:xlink="http://www.w3.org/1999/xlink" xml:space="preserve" width="232" height="232" viewBox="0 0 232 232"><rect width="232" height="232" fill="#ffffff" x="0" y="0"/><g fill="#000000">
<g transform="translate(104,16) scale(1.3733333333333)"><rect width="6" height="6"/></g>
<g transform="translate(120,16) scale(1.3733333333333)"><rect width="6" height="6"/></g>
<g transform="translate(144,16) scale(1.3733333333333)"><rect width="6" height="6"/></g>
<g transform="translate(80,24) scale(1.3733333333333)"><rect width="6" height="6"/></g>
<g transform="translate(96,24) scale(1.3733333333333)"><rect width="6" height="6"/></g>
<g transform="translate(112,24) scale(1.3733333333333)"><rect width="6" height="6"/></g>
<g transform="translate(136,24) scale(1.3733333333333)"><rect width="6" height="6"/></g>
<g transform="translate(144,24) scale(1.3733333333333)"><rect width="6" height="6"/></g>
<g transform="translate(88,32) scale(1.3733333333333)"><rect width="6" height="6"/></g>
<g transform="translate(96,32) scale(1.3733333333333)"><rect width="6" height="6"/></g>
<g transform="translate(104,32) scale(1.3733333333333)"><rect width="6" height="6"/></g>
<g transform="translate(80,40) scale(1.3733333333333)"><rect width="6" height="6"/></g>
<g transform="translate(96,40) scale(1.3733333333333)"><rect width="6" height="6"/></g>
<g transform="translate(104,40) scale(1.3733333333333)"><rect width="6" height="6"/></g>
<g transform="translate(112,40) scale(1.3733333333333)"><rect width="6" height="6"/></g>
<g transform="translate(120,40) scale(1.3733333333333)"><rect width="6" height="6"/></g>
<g transform="translate(128,40) scale(1.3733333333333)"><rect width="6" height="6"/></g>
<g transform="translate(136,40) scale(1.3733333333333)"><rect width="6" height="6"/></g>
<g transform="translate(88,48) scale(1.3733333333333)"><rect width="6" height="6"/></g>
<g transform="translate(96,48) scale(1.3733333333333)"><rect width="6" height="6"/></g>
<g transform="translate(104,48) scale(1.3733333333333)"><rect width="6" height="6"/></g>
<g transform="translate(112,48) scale(1.3733333333333)"><rect width="6" height="6"/></g>
<g transform="translate(120,48) scale(1.3733333333333)"><rect width="6" height="6"/></g>
<g transform="translate(144,48) scale(1.3733333333333)"><rect width="6" height="6"/></g>
<g transform="translate(80,56) scale(1.3733333333333)"><rect width="6" height="6"/></g>
<g transform="translate(136,56) scale(1.3733333333333)"><rect width="6" height="6"/></g>
<g transform="translate(80,64) scale(1.3733333333333)"><rect width="6" height="6"/></g>
<g transform="translate(96,64) scale(1.3733333333333)"><rect width="6" height="6"/></g>
<g transform="translate(112,64) scale(1.3733333333333)"><rect width="6" height="6"/></g>
<g transform="translate(128,64) scale(1.3733333333333)"><rect width="6" height="6"/></g>
<g transform="translate(144,64) scale(1.3733333333333)"><rect width="6" height="6"/></g>
<g transform="translate(88,72) scale(1.3733333333333)"><rect width="6" height="6"/></g>
<g transform="translate(112,72) scale(1.3733333333333)"><rect width="6" height="6"/></g>
<g transform="translate(128,72) scale(1.3733333333333)"><rect width="6" height="6"/></g>
<g transform="translate(16,80) scale(1.3733333333333)"><rect width="6" height="6"/></g>
<g transform="translate(24,80) scale(1.3733333333333)"><rect width="6" height="6"/></g>
<g transform="translate(32,80) scale(1.3733333333333)"><rect width="6" height="6"/></g>
<g transform="translate(40,80) scale(1.3733333333333)"><rect width="6" height="6"/></g>
<g transform="translate(48,80) scale(1.3733333333333)"><rect width="6" height="6"/></g>
<g transform="translate(64,80) scale(1.3733333333333)"><rect width="6" height="6"/></g>
<g transform="translate(72,80) scale(1.3733333333333)"><rect width="6" height="6"/></g>
<g transform="translate(80,80) scale(1.3733333333333)"><rect width="6" height="6"/></g>
<g transform="translate(96,80) scale(1.3733333333333)"><rect width="6" height="6"/></g>
<g transform="translate(112,80) scale(1.3733333333333)"><rect width="6" height="6"/></g>
<g transform="translate(120,80) scale(1.3733333333333)"><rect width="6" height="6"/></g>
<g transform="translate(128,80) scale(1.3733333333333)"><rect width="6" height="6"/></g>
<g transform="translate(136,80) scale(1.3733333333333)"><rect width="6" height="6"/></g>
<g transform="translate(144,80) scale(1.3733333333333)"><rect width="6" height="6"/></g>
<g transform="translate(152,80) scale(1.3733333333333)"><rect width="6" height="6"/></g>
<g transform="translate(168,80) scale(1.3733333333333)"><rect width="6" height="6"/></g>
<g transform="translate(184,80) scale(1.3733333333333)"><rect width="6" height="6"/></g>
<g transform="translate(200,80) scale(1.3733333333333)"><rect width="6" height="6"/></g>
<g transform="translate(16,88) scale(1.3733333333333)"><rect width="6" height="6"/></g>
<g transform="translate(24,88) scale(1.3733333333333)"><rect width="6" height="6"/></g>
<g transform="translate(32,88) scale(1.3733333333333)"><rect width="6" height="6"/></g>
<g transform="translate(72,88) scale(1.3733333333333)"><rect width="6" height="6"/></g>
<g transform="translate(88,88) scale(1.3733333333333)"><rect width="6" height="6"/></g>
<g transform="translate(104,88) scale(1.3733333333333)"><rect width="6" height="6"/></g>
<g transform="translate(120,88) scale(1.3733333333333)"><rect width="6" height="6"/></g>
<g transform="translate(144,88) scale(1.3733333333333)"><rect width="6" height="6"/></g>
<g transform="translate(152,88) scale(1.3733333333333)"><rect width="6" height="6"/></g>
<g transform="translate(168,88) scale(1.3733333333333)"><rect width="6" height="6"/></g>
<g transform="translate(200,88) scale(1.3733333333333)"><rect width="6" height="6"/></g>
<g transform="translate(16,96) scale(1.3733333333333)"><rect width="6" height="6"/></g>
<g transform="translate(24,96) scale(1.3733333333333)"><rect width="6" height="6"/></g>
<g transform="translate(32,96) scale(1.3733333333333)"><rect width="6" height="6"/></g>
<g transform="translate(40,96) scale(1.3733333333333)"><rect width="6" height="6"/></g>
<g transform="translate(64,96) scale(1.3733333333333)"><rect width="6" height="6"/></g>
<g transform="translate(80,96) scale(1.3733333333333)"><rect width="6" height="6"/></g>
<g transform="translate(96,96) scale(1.3733333333333)"><rect width="6" height="6"/></g>
<g transform="translate(112,96) scale(1.3733333333333)"><rect width="6" height="6"/></g>
<g transform="translate(120,96) scale(1.3733333333333)"><rect width="6" height="6"/></g>
<g transform="translate(128,96) scale(1.3733333333333)"><rect width="6" height="6"/></g>
<g transform="translate(136,96) scale(1.3733333333333)"><rect width="6" height="6"/></g>
<g transform="translate(144,96) scale(1.3733333333333)"><rect width="6" height="6"/></g>
<g transform="translate(152,96) scale(1.3733333333333)"><rect width="6" height="6"/></g>
<g transform="translate(160,96) scale(1.3733333333333)"><rect width="6" height="6"/></g>
<g transform="translate(168,96) scale(1.3733333333333)"><rect width="6" height="6"/></g>
<g transform="translate(176,96) scale(1.3733333333333)"><rect width="6" height="6"/></g>
<g transform="translate(184,96) scale(1.3733333333333)"><rect width="6" height="6"/></g>
<g transform="translate(200,96) scale(1.3733333333333)"><rect width="6" height="6"/></g>
<g transform="translate(208,96) scale(1.3733333333333)"><rect width="6" height="6"/></g>
<g transform="translate(16,104) scale(1.3733333333333)"><rect width="6" height="6"/></g>
<g transform="translate(24,104) scale(1.3733333333333)"><rect width="6" height="6"/></g>
<g transform="translate(40,104) scale(1.3733333333333)"><rect width="6" height="6"/></g>
<g transform="translate(48,104) scale(1.3733333333333)"><rect width="6" height="6"/></g>
<g transform="translate(56,104) scale(1.3733333333333)"><rect width="6" height="6"/></g>
<g transform="translate(88,104) scale(1.3733333333333)"><rect width="6" height="6"/></g>
<g transform="translate(96,104) scale(1.3733333333333)"><rect width="6" height="6"/></g>
<g transform="translate(104,104) scale(1.3733333333333)"><rect width="6" height="6"/></g>
<g transform="translate(112,104) scale(1.3733333333333)"><rect width="6" height="6"/></g>
<g transform="translate(136,104) scale(1.3733333333333)"><rect width="6" height="6"/></g>
<g transform="translate(144,104) scale(1.3733333333333)"><rect width="6" height="6"/></g>
<g transform="translate(152,104) scale(1.3733333333333)"><rect width="6" height="6"/></g>
<g transform="translate(168,104) scale(1.3733333333333)"><rect width="6" height="6"/></g>
<g transform="translate(208,104) scale(1.3733333333333)"><rect width="6" height="6"/></g>
<g transform="translate(16,112) scale(1.3733333333333)"><rect width="6" height="6"/></g>
<g transform="translate(24,112) scale(1.3733333333333)"><rect width="6" height="6"/></g>
<g transform="translate(40,112) scale(1.3733333333333)"><rect width="6" height="6"/></g>
<g transform="translate(48,112) scale(1.3733333333333)"><rect width="6" height="6"/></g>
<g transform="translate(56,112) scale(1.3733333333333)"><rect width="6" height="6"/></g>
<g transform="translate(64,112) scale(1.3733333333333)"><rect width="6" height="6"/></g>
<g transform="translate(88,112) scale(1.3733333333333)"><rect width="6" height="6"/></g>
<g transform="translate(120,112) scale(1.3733333333333)"><rect width="6" height="6"/></g>
<g transform="translate(128,112) scale(1.3733333333333)"><rect width="6" height="6"/></g>
<g transform="translate(136,112) scale(1.3733333333333)"><rect width="6" height="6"/></g>
<g transform="translate(144,112) scale(1.3733333333333)"><rect width="6" height="6"/></g>
<g transform="translate(152,112) scale(1.3733333333333)"><rect width="6" height="6"/></g>
<g transform="translate(160,112) scale(1.3733333333333)"><rect width="6" height="6"/></g>
<g transform="translate(168,112) scale(1.3733333333333)"><rect width="6" height="6"/></g>
<g transform="translate(176,112) scale(1.3733333333333)"><rect width="6" height="6"/></g>
<g transform="translate(192,112) scale(1.3733333333333)"><rect width="6" height="6"/></g>
<g transform="translate(200,112) scale(1.3733333333333)"><rect width="6" height="6"/></g>
<g transform="translate(208,112) scale(1.3733333333333)"><rect width="6" height="6"/></g>
<g transform="translate(16,120) scale(1.3733333333333)"><rect width="6" height="6"/></g>
<g transform="translate(24,120) scale(1.3733333333333)"><rect width="6" height="6"/></g>
<g transform="translate(56,120) scale(1.3733333333333)"><rect width="6" height="6"/></g>
<g transform="translate(72,120) scale(1.3733333333333)"><rect width="6" height="6"/></g>
<g transform="translate(104,120) scale(1.3733333333333)"><rect width="6" height="6"/></g>
<g transform="translate(144,120) scale(1.3733333333333)"><rect width="6" height="6"/></g>
<g transform="translate(152,120) scale(1.3733333333333)"><rect width="6" height="6"/></g>
<g transform="translate(168,120) scale(1.3733333333333)"><rect width="6" height="6"/></g>
<g transform="translate(184,120) scale(1.3733333333333)"><rect width="6" height="6"/></g>
<g transform="translate(200,120) scale(1.3733333333333)"><rect width="6" height="6"/></g>
<g transform="translate(16,128) scale(1.3733333333333)"><rect width="6" height="6"/></g>
<g transform="translate(40,128) scale(1.3733333333333)"><rect width="6" height="6"/></g>
<g transform="translate(64,128) scale(1.3733333333333)"><rect width="6" height="6"/></g>
<g transform="translate(72,128) scale(1.3733333333333)"><rect width="6" height="6"/></g>
<g transform="translate(80,128) scale(1.3733333333333)"><rect width="6" height="6"/></g>
<g transform="translate(88,128) scale(1.3733333333333)"><rect width="6" height="6"/></g>
<g transform="translate(112,128) scale(1.3733333333333)"><rect width="6" height="6"/></g>
<g transform="translate(120,128) scale(1.3733333333333)"><rect width="6" height="6"/></g>
<g transform="translate(136,128) scale(1.3733333333333)"><rect width="6" height="6"/></g>
<g transform="translate(152,128) scale(1.3733333333333)"><rect width="6" height="6"/></g>
<g transform="translate(160,128) scale(1.3733333333333)"><rect width="6" height="6"/></g>
<g transform="translate(168,128) scale(1.3733333333333)"><rect width="6" height="6"/></g>
<g transform="translate(176,128) scale(1.3733333333333)"><rect width="6" height="6"/></g>
<g transform="translate(184,128) scale(1.3733333333333)"><rect width="6" height="6"/></g>
<g transform="translate(200,128) scale(1.3733333333333)"><rect width="6" height="6"/></g>
<g transform="translate(208,128) scale(1.3733333333333)"><rect width="6" height="6"/></g>
<g transform="translate(16,136) scale(1.3733333333333)"><rect width="6" height="6"/></g>
<g transform="translate(32,136) scale(1.3733333333333)"><rect width="6" height="6"/></g>
<g transform="translate(72,136) scale(1.3733333333333)"><rect width="6" height="6"/></g>
<g transform="translate(80,136) scale(1.3733333333333)"><rect width="6" height="6"/></g>
<g transform="translate(88,136) scale(1.3733333333333)"><rect width="6" height="6"/></g>
<g transform="translate(96,136) scale(1.3733333333333)"><rect width="6" height="6"/></g>
<g transform="translate(104,136) scale(1.3733333333333)"><rect width="6" height="6"/></g>
<g transform="translate(112,136) scale(1.3733333333333)"><rect width="6" height="6"/></g>
<g transform="translate(128,136) scale(1.3733333333333)"><rect width="6" height="6"/></g>
<g transform="translate(136,136) scale(1.3733333333333)"><rect width="6" height="6"/></g>
<g transform="translate(152,136) scale(1.3733333333333)"><rect width="6" height="6"/></g>
<g transform="translate(168,136) scale(1.3733333333333)"><rect width="6" height="6"/></g>
<g transform="translate(176,136) scale(1.3733333333333)"><rect width="6" height="6"/></g>
<g transform="translate(208,136) scale(1.3733333333333)"><rect width="6" height="6"/></g>
<g transform="translate(16,144) scale(1.3733333333333)"><rect width="6" height="6"/></g>
<g transform="translate(40,144) scale(1.3733333333333)"><rect width="6" height="6"/></g>
<g transform="translate(64,144) scale(1.3733333333333)"><rect width="6" height="6"/></g>
<g transform="translate(72,144) scale(1.3733333333333)"><rect width="6" height="6"/></g>
<g transform="translate(80,144) scale(1.3733333333333)"><rect width="6" height="6"/></g>
<g transform="translate(96,144) scale(1.3733333333333)"><rect width="6" height="6"/></g>
<g transform="translate(120,144) scale(1.3733333333333)"><rect width="6" height="6"/></g>
<g transform="translate(128,144) scale(1.3733333333333)"><rect width="6" height="6"/></g>
<g transform="translate(144,144) scale(1.3733333333333)"><rect width="6" height="6"/></g>
<g transform="translate(152,144) scale(1.3733333333333)"><rect width="6" height="6"/></g>
<g transform="translate(160,144) scale(1.3733333333333)"><rect width="6" height="6"/></g>
<g transform="translate(168,144) scale(1.3733333333333)"><rect width="6" height="6"/></g>
<g transform="translate(176,144) scale(1.3733333333333)"><rect width="6" height="6"/></g>
<g transform="translate(192,144) scale(1.3733333333333)"><rect width="6" height="6"/></g>
<g transform="translate(80,152) scale(1.3733333333333)"><rect width="6" height="6"/></g>
<g transform="translate(88,152) scale(1.3733333333333)"><rect width="6" height="6"/></g>
<g transform="translate(104,152) scale(1.3733333333333)"><rect width="6" height="6"/></g>
<g transform="translate(136,152) scale(1.3733333333333)"><rect width="6" height="6"/></g>
<g transform="translate(144,152) scale(1.3733333333333)"><rect width="6" height="6"/></g>
<g transform="translate(176,152) scale(1.3733333333333)"><rect width="6" height="6"/></g>
<g transform="translate(184,152) scale(1.3733333333333)"><rect width="6" height="6"/></g>
<g transform="translate(80,160) scale(1.3733333333333)"><rect width="6" height="6"/></g>
<g transform="translate(88,160) scale(1.3733333333333)"><rect width="6" height="6"/></g>
<g transform="translate(96,160) scale(1.3733333333333)"><rect width="6" height="6"/></g>
<g transform="translate(144,160) scale(1.3733333333333)"><rect width="6" height="6"/></g>
<g transform="translate(160,160) scale(1.3733333333333)"><rect width="6" height="6"/></g>
<g transform="translate(176,160) scale(1.3733333333333)"><rect width="6" height="6"/></g>
<g transform="translate(192,160) scale(1.3733333333333)"><rect width="6" height="6"/></g>
<g transform="translate(200,160) scale(1.3733333333333)"><rect width="6" height="6"/></g>
<g transform="translate(208,160) scale(1.3733333333333)"><rect width="6" height="6"/></g>
<g transform="translate(128,168) scale(1.3733333333333)"><rect width="6" height="6"/></g>
<g transform="translate(144,168) scale(1.3733333333333)"><rect width="6" height="6"/></g>
<g transform="translate(176,168) scale(1.3733333333333)"><rect width="6" height="6"/></g>
<g transform="translate(184,168) scale(1.3733333333333)"><rect width="6" height="6"/></g>
<g transform="translate(208,168) scale(1.3733333333333)"><rect width="6" height="6"/></g>
<g transform="translate(80,176) scale(1.3733333333333)"><rect width="6" height="6"/></g>
<g transform="translate(96,176) scale(1.3733333333333)"><rect width="6" height="6"/></g>
<g transform="translate(112,176) scale(1.3733333333333)"><rect width="6" height="6"/></g>
<g transform="translate(120,176) scale(1.3733333333333)"><rect width="6" height="6"/></g>
<g transform="translate(128,176) scale(1.3733333333333)"><rect width="6" height="6"/></g>
<g transform="translate(136,176) scale(1.3733333333333)"><rect width="6" height="6"/></g>
<g transform="translate(144,176) scale(1.3733333333333)"><rect width="6" height="6"/></g>
<g transform="translate(152,176) scale(1.3733333333333)"><rect width="6" height="6"/></g>
<g transform="translate(160,176) scale(1.3733333333333)"><rect width="6" height="6"/></g>
<g transform="translate(168,176) scale(1.3733333333333)"><rect width="6" height="6"/></g>
<g transform="translate(176,176) scale(1.3733333333333)"><rect width="6" height="6"/></g>
<g transform="translate(192,176) scale(1.3733333333333)"><rect width="6" height="6"/></g>
<g transform="translate(208,176) scale(1.3733333333333)"><rect width="6" height="6"/></g>
<g transform="translate(80,184) scale(1.3733333333333)"><rect width="6" height="6"/></g>
<g transform="translate(88,184) scale(1.3733333333333)"><rect width="6" height="6"/></g>
<g transform="translate(96,184) scale(1.3733333333333)"><rect width="6" height="6"/></g>
<g transform="translate(104,184) scale(1.3733333333333)"><rect width="6" height="6"/></g>
<g transform="translate(120,184) scale(1.3733333333333)"><rect width="6" height="6"/></g>
<g transform="translate(144,184) scale(1.3733333333333)"><rect width="6" height="6"/></g>
<g transform="translate(160,184) scale(1.3733333333333)"><rect width="6" height="6"/></g>
<g transform="translate(176,184) scale(1.3733333333333)"><rect width="6" height="6"/></g>
<g transform="translate(184,184) scale(1.3733333333333)"><rect width="6" height="6"/></g>
<g transform="translate(192,184) scale(1.3733333333333)"><rect width="6" height="6"/></g>
<g transform="translate(80,192) scale(1.3733333333333)"><rect width="6" height="6"/></g>
<g transform="translate(112,192) scale(1.3733333333333)"><rect width="6" height="6"/></g>
<g transform="translate(120,192) scale(1.3733333333333)"><rect width="6" height="6"/></g>
<g transform="translate(128,192) scale(1.3733333333333)"><rect width="6" height="6"/></g>
<g transform="translate(136,192) scale(1.3733333333333)"><rect width="6" height="6"/></g>
<g transform="translate(184,192) scale(1.3733333333333)"><rect width="6" height="6"/></g>
<g transform="translate(192,192) scale(1.3733333333333)"><rect width="6" height="6"/></g>
<g transform="translate(208,192) scale(1.3733333333333)"><rect width="6" height="6"/></g>
<g transform="translate(80,200) scale(1.3733333333333)"><rect width="6" height="6"/></g>
<g transform="translate(88,200) scale(1.3733333333333)"><rect width="6" height="6"/></g>
<g transform="translate(96,200) scale(1.3733333333333)"><rect width="6" height="6"/></g>
<g transform="translate(104,200) scale(1.3733333333333)"><rect width="6" height="6"/></g>
<g transform="translate(112,200) scale(1.3733333333333)"><rect width="6" height="6"/></g>
<g transform="translate(136,200) scale(1.3733333333333)"><rect width="6" height="6"/></g>
<g transform="translate(144,200) scale(1.3733333333333)"><rect width="6" height="6"/></g>
<g transform="translate(152,200) scale(1.3733333333333)"><rect width="6" height="6"/></g>
<g transform="translate(168,200) scale(1.3733333333333)"><rect width="6" height="6"/></g>
<g transform="translate(176,200) scale(1.3733333333333)"><rect width="6" height="6"/></g>
<g transform="translate(184,200) scale(1.3733333333333)"><rect width="6" height="6"/></g>
<g transform="translate(208,200) scale(1.3733333333333)"><rect width="6" height="6"/></g>
<g transform="translate(80,208) scale(1.3733333333333)"><rect width="6" height="6"/></g>
<g transform="translate(96,208) scale(1.3733333333333)"><rect width="6" height="6"/></g>
<g transform="translate(112,208) scale(1.3733333333333)"><rect width="6" height="6"/></g>
<g transform="translate(120,208) scale(1.3733333333333)"><rect width="6" height="6"/></g>
<g transform="translate(128,208) scale(1.3733333333333)"><rect width="6" height="6"/></g>
<g transform="translate(168,208) scale(1.3733333333333)"><rect width="6" height="6"/></g>
<g transform="translate(176,208) scale(1.3733333333333)"><rect width="6" height="6"/></g>
<g transform="translate(184,208) scale(1.3733333333333)"><rect width="6" height="6"/></g>
<g transform="translate(192,208) scale(1.3733333333333)"><rect width="6" height="6"/></g>
<g transform="translate(200,208) scale(1.3733333333333)"><rect width="6" height="6"/></g>
<g transform="translate(208,208) scale(1.3733333333333)"><rect width="6" height="6"/></g>
<g transform="translate(16,16)"><g transform="scale(4)"><path d="M0,0v14h14V0H0z M12,12H2V2h10V12z"/></g></g>
<g transform="translate(160,16)"><g transform="scale(4)"><path d="M0,0v14h14V0H0z M12,12H2V2h10V12z"/></g></g>
<g transform="translate(16,160)"><g transform="scale(4)"><path d="M0,0v14h14V0H0z M12,12H2V2h10V12z"/></g></g>
<g transform="translate(32,32)"><g transform="scale(4)"><rect width="6" height="6"/></g></g>
<g transform="translate(176,32)"><g transform="scale(4)"><rect width="6" height="6"/></g></g>
<g transform="translate(32,176)"><g transform="scale(4)"><rect width="6" height="6"/></g></g>
</g></svg>
